<svg width="700" height="420" viewBox="0 0 700 420" fill="none" xmlns="http://www.w3.org/2000/svg">
<rect width="700" height="420" fill="white"/>
<path d="M350 40L342.783 52.5H357.217L350 40ZM350 300H351.25V51.25H350H348.75V300H350Z" fill="#A0ACB9"/>
<path d="M80 300H620" stroke="#444444" stroke-width="3"/>
<path d="M80 300L70 315" stroke="#BBBBBB"/>
<path d="M120 300L110 315" stroke="#BBBBBB"/>
<path d="M160 300L150 315" stroke="#BBBBBB"/>
<path d="M200 300L190 315" stroke="#BBBBBB"/>
<path d="M240 300L230 315" stroke="#BBBBBB"/>
<path d="M280 300L270 315" stroke="#BBBBBB"/>
<path d="M320 300L310 315" stroke="#BBBBBB"/>
<path d="M360 300L350 315" stroke="#BBBBBB"/>
<path d="M400 300L390 315" stroke="#BBBBBB"/>
<path d="M440 300L430 315" stroke="#BBBBBB"/>
<path d="M480 300L470 315" stroke="#BBBBBB"/>
<path d="M520 300L510 315" stroke="#BBBBBB"/>
<path d="M560 300L550 315" stroke="#BBBBBB"/>
<path d="M600 300L590 315" stroke="#BBBBBB"/>
<path d="M350 304C352.209 304 354 302.209 354 300C354 297.791 352.209 296 350 296C347.791 296 346 297.791 346 300C346 302.209 347.791 304 350 304Z" fill="#222222"/>
<path d="M317.233 329V318.818H320.673C321.472 318.818 322.125 318.962 322.632 319.251C323.143 319.536 323.52 319.922 323.766 320.409C324.011 320.896 324.134 321.44 324.134 322.04C324.134 322.64 324.011 323.185 323.766 323.675C323.524 324.166 323.149 324.557 322.642 324.849C322.135 325.137 321.485 325.281 320.693 325.281H318.227V324.188H320.653C321.2 324.188 321.639 324.093 321.971 323.904C322.302 323.715 322.543 323.46 322.692 323.138C322.844 322.814 322.92 322.447 322.92 322.04C322.92 321.632 322.844 321.268 322.692 320.946C322.543 320.625 322.301 320.373 321.966 320.19C321.631 320.005 321.187 319.912 320.634 319.912H318.466V329H317.233ZM330.316 324.705C330.316 323.452 330.478 322.3 330.803 321.249C331.131 320.195 331.598 319.226 332.205 318.341H333.239C333 318.669 332.777 319.073 332.568 319.554C332.362 320.031 332.182 320.557 332.026 321.13C331.87 321.7 331.748 322.29 331.658 322.9C331.572 323.51 331.529 324.111 331.529 324.705C331.529 325.493 331.605 326.294 331.757 327.106C331.91 327.918 332.115 328.672 332.374 329.368C332.632 330.064 332.921 330.631 333.239 331.068H332.205C331.598 330.183 331.131 329.215 330.803 328.165C330.478 327.111 330.316 325.957 330.316 324.705ZM338.371 321.364V322.358H334.254V321.364H338.371ZM335.487 329V320.31C335.487 319.872 335.59 319.508 335.796 319.216C336.001 318.924 336.268 318.705 336.596 318.56C336.924 318.414 337.271 318.341 337.635 318.341C337.923 318.341 338.159 318.364 338.341 318.411C338.523 318.457 338.659 318.5 338.749 318.54L338.411 319.554C338.351 319.534 338.268 319.509 338.162 319.479C338.059 319.45 337.923 319.435 337.754 319.435C337.367 319.435 337.087 319.532 336.914 319.728C336.745 319.924 336.661 320.21 336.661 320.588V329H335.487ZM340.015 329V321.364H341.149V322.517H341.228C341.368 322.139 341.619 321.833 341.984 321.597C342.349 321.362 342.76 321.244 343.217 321.244C343.303 321.244 343.411 321.246 343.54 321.249C343.669 321.253 343.767 321.258 343.833 321.264V322.457C343.794 322.447 343.703 322.433 343.56 322.413C343.421 322.389 343.273 322.378 343.118 322.378C342.746 322.378 342.415 322.456 342.123 322.612C341.835 322.764 341.606 322.976 341.437 323.248C341.271 323.516 341.189 323.823 341.189 324.168V329H340.015ZM347.471 329.179C346.988 329.179 346.548 329.088 346.154 328.906C345.76 328.72 345.446 328.453 345.214 328.105C344.982 327.754 344.866 327.33 344.866 326.832C344.866 326.395 344.952 326.04 345.125 325.768C345.297 325.493 345.528 325.278 345.816 325.122C346.104 324.966 346.422 324.85 346.77 324.774C347.122 324.695 347.475 324.632 347.829 324.585C348.293 324.526 348.67 324.481 348.958 324.451C349.25 324.418 349.462 324.363 349.594 324.287C349.73 324.211 349.798 324.078 349.798 323.889V323.849C349.798 323.359 349.664 322.978 349.395 322.706C349.13 322.434 348.728 322.298 348.187 322.298C347.627 322.298 347.188 322.421 346.87 322.666C346.552 322.911 346.328 323.173 346.199 323.452L345.085 323.054C345.284 322.59 345.549 322.229 345.881 321.97C346.215 321.708 346.58 321.526 346.974 321.423C347.372 321.317 347.763 321.264 348.148 321.264C348.393 321.264 348.675 321.294 348.993 321.354C349.314 321.41 349.624 321.528 349.922 321.707C350.224 321.886 350.474 322.156 350.673 322.517C350.872 322.878 350.971 323.362 350.971 323.969V329H349.798V327.966H349.738C349.659 328.132 349.526 328.309 349.341 328.498C349.155 328.687 348.908 328.848 348.6 328.98C348.292 329.113 347.916 329.179 347.471 329.179ZM347.65 328.125C348.114 328.125 348.506 328.034 348.824 327.852C349.145 327.669 349.387 327.434 349.55 327.146C349.715 326.857 349.798 326.554 349.798 326.236V325.162C349.748 325.222 349.639 325.276 349.47 325.326C349.304 325.372 349.112 325.414 348.893 325.45C348.678 325.483 348.467 325.513 348.262 325.54C348.06 325.563 347.896 325.583 347.77 325.599C347.465 325.639 347.18 325.704 346.915 325.793C346.653 325.879 346.441 326.01 346.278 326.186C346.119 326.358 346.04 326.594 346.04 326.892C346.04 327.3 346.19 327.608 346.492 327.817C346.797 328.022 347.183 328.125 347.65 328.125ZM356.195 332.023C355.629 332.023 355.141 331.95 354.734 331.804C354.326 331.661 353.986 331.473 353.714 331.237C353.446 331.005 353.232 330.757 353.073 330.491L354.008 329.835C354.114 329.974 354.248 330.134 354.411 330.312C354.573 330.495 354.795 330.652 355.077 330.785C355.362 330.921 355.735 330.989 356.195 330.989C356.812 330.989 357.321 330.839 357.722 330.541C358.123 330.243 358.323 329.776 358.323 329.139V327.588H358.224C358.138 327.727 358.015 327.9 357.856 328.105C357.7 328.307 357.475 328.488 357.18 328.647C356.888 328.803 356.494 328.881 355.996 328.881C355.38 328.881 354.826 328.735 354.336 328.443C353.849 328.152 353.463 327.727 353.178 327.17C352.896 326.614 352.755 325.937 352.755 325.142C352.755 324.36 352.893 323.679 353.168 323.099C353.443 322.515 353.826 322.065 354.316 321.746C354.807 321.425 355.373 321.264 356.016 321.264C356.513 321.264 356.908 321.347 357.2 321.513C357.495 321.675 357.72 321.861 357.876 322.07C358.035 322.275 358.157 322.444 358.244 322.577H358.363V321.364H359.496V329.219C359.496 329.875 359.347 330.409 359.049 330.82C358.754 331.234 358.356 331.537 357.856 331.729C357.359 331.925 356.805 332.023 356.195 332.023ZM356.156 327.827C356.626 327.827 357.024 327.719 357.349 327.504C357.674 327.288 357.92 326.978 358.089 326.574C358.259 326.17 358.343 325.686 358.343 325.122C358.343 324.572 358.26 324.086 358.094 323.665C357.929 323.245 357.683 322.915 357.359 322.676C357.034 322.437 356.633 322.318 356.156 322.318C355.658 322.318 355.244 322.444 354.913 322.696C354.585 322.948 354.338 323.286 354.172 323.71C354.009 324.134 353.928 324.605 353.928 325.122C353.928 325.652 354.011 326.121 354.177 326.529C354.346 326.933 354.594 327.252 354.923 327.484C355.254 327.712 355.665 327.827 356.156 327.827ZM361.644 329V321.364H362.778V322.557H362.877C363.036 322.149 363.293 321.833 363.648 321.607C364.002 321.379 364.428 321.264 364.925 321.264C365.429 321.264 365.848 321.379 366.183 321.607C366.521 321.833 366.785 322.149 366.974 322.557H367.053C367.249 322.162 367.542 321.849 367.933 321.617C368.324 321.382 368.793 321.264 369.34 321.264C370.023 321.264 370.581 321.478 371.016 321.906C371.45 322.33 371.667 322.991 371.667 323.889V329H370.494V323.889C370.494 323.326 370.339 322.923 370.031 322.681C369.723 322.439 369.36 322.318 368.942 322.318C368.406 322.318 367.99 322.481 367.695 322.805C367.4 323.127 367.252 323.535 367.252 324.028V329H366.059V323.77C366.059 323.336 365.918 322.986 365.636 322.721C365.355 322.452 364.992 322.318 364.548 322.318C364.243 322.318 363.958 322.399 363.692 322.562C363.431 322.724 363.219 322.95 363.056 323.238C362.897 323.523 362.817 323.853 362.817 324.227V329H361.644ZM377.014 329.159C376.278 329.159 375.643 328.997 375.11 328.672C374.579 328.344 374.17 327.886 373.882 327.3C373.597 326.71 373.454 326.024 373.454 325.241C373.454 324.459 373.597 323.77 373.882 323.173C374.17 322.573 374.571 322.106 375.085 321.771C375.602 321.433 376.205 321.264 376.895 321.264C377.292 321.264 377.685 321.33 378.073 321.463C378.461 321.596 378.814 321.811 379.132 322.109C379.45 322.404 379.703 322.795 379.892 323.283C380.081 323.77 380.176 324.37 380.176 325.082V325.58H374.289V324.565H378.983C378.983 324.134 378.896 323.75 378.724 323.412C378.555 323.074 378.313 322.807 377.998 322.612C377.687 322.416 377.319 322.318 376.895 322.318C376.427 322.318 376.023 322.434 375.681 322.666C375.343 322.895 375.083 323.193 374.901 323.561C374.719 323.929 374.627 324.323 374.627 324.744V325.42C374.627 325.997 374.727 326.486 374.926 326.887C375.128 327.285 375.408 327.588 375.766 327.797C376.124 328.002 376.54 328.105 377.014 328.105C377.322 328.105 377.6 328.062 377.849 327.976C378.101 327.886 378.318 327.754 378.5 327.578C378.683 327.399 378.824 327.177 378.923 326.912L380.056 327.23C379.937 327.615 379.737 327.953 379.455 328.244C379.173 328.533 378.825 328.758 378.411 328.92C377.997 329.08 377.531 329.159 377.014 329.159ZM383.134 324.406V329H381.961V321.364H383.094V322.557H383.194C383.373 322.169 383.644 321.857 384.009 321.622C384.373 321.384 384.844 321.264 385.421 321.264C385.938 321.264 386.39 321.37 386.778 321.582C387.166 321.791 387.467 322.109 387.683 322.537C387.898 322.961 388.006 323.498 388.006 324.148V329H386.833V324.227C386.833 323.627 386.677 323.16 386.365 322.825C386.054 322.487 385.626 322.318 385.083 322.318C384.708 322.318 384.373 322.399 384.078 322.562C383.787 322.724 383.556 322.961 383.387 323.273C383.218 323.584 383.134 323.962 383.134 324.406ZM393.471 321.364V322.358H389.514V321.364H393.471ZM390.667 319.534H391.84V326.812C391.84 327.144 391.888 327.393 391.985 327.558C392.084 327.721 392.21 327.83 392.362 327.886C392.518 327.939 392.682 327.966 392.855 327.966C392.984 327.966 393.09 327.959 393.173 327.946C393.256 327.929 393.322 327.916 393.372 327.906L393.61 328.96C393.531 328.99 393.42 329.02 393.277 329.05C393.135 329.083 392.954 329.099 392.735 329.099C392.404 329.099 392.079 329.028 391.761 328.886C391.446 328.743 391.184 328.526 390.975 328.234C390.77 327.943 390.667 327.575 390.667 327.131V319.534ZM397.742 324.705C397.742 325.957 397.578 327.111 397.249 328.165C396.925 329.215 396.459 330.183 395.852 331.068H394.818C395.057 330.74 395.279 330.336 395.485 329.855C395.693 329.378 395.876 328.854 396.031 328.284C396.187 327.711 396.308 327.119 396.394 326.509C396.484 325.896 396.529 325.295 396.529 324.705C396.529 323.916 396.452 323.115 396.3 322.303C396.147 321.491 395.942 320.737 395.683 320.041C395.425 319.345 395.137 318.778 394.818 318.341H395.852C396.459 319.226 396.925 320.195 397.249 321.249C397.578 322.3 397.742 323.452 397.742 324.705Z" fill="#222222"/>
<path d="M350.884 119.116C350.396 118.628 349.604 118.628 349.116 119.116L341.161 127.071C340.673 127.559 340.673 128.351 341.161 128.839C341.649 129.327 342.441 129.327 342.929 128.839L350 121.768L357.071 128.839C357.559 129.327 358.351 129.327 358.839 128.839C359.327 128.351 359.327 127.559 358.839 127.071L350.884 119.116ZM350 300H351.25V120H350H348.75V300H350Z" fill="#2C6FB0"/>
<path d="M373.321 116.909L371.148 130H369.614L364.193 119.722H364.065L362.352 130H360.767L362.94 116.909H364.474L369.92 127.213H370.048L371.761 116.909H373.321Z" fill="#2C6FB0"/>
<path d="M224 167L227.346 181.041L237.832 171.123L224 167ZM231.73 175.174L230.822 176.033L345.092 296.859L346 296L346.908 295.141L232.638 174.315L231.73 175.174Z" fill="#C0392B"/>
<path opacity="0.2" d="M480 169L476.654 154.959L466.168 164.877L480 169ZM358 40L357.092 40.8589L471.362 161.685L472.27 160.826L473.178 159.967L358.908 39.1411L358 40Z" fill="#C0392B"/>
<path d="M207.767 160L209.94 146.909H211.526L209.582 158.594H215.668L215.438 160H207.767Z" fill="#C0392B"/>
<path d="M484 167L470.044 170.683L480.212 180.928L484 167ZM350 300L350.881 300.887L476.896 175.812L476.015 174.925L475.135 174.038L349.119 299.113L350 300Z" fill="#222222"/>
<path d="M493.767 153L495.94 139.909H500.364C501.386 139.909 502.196 140.082 502.793 140.427C503.393 140.772 503.8 141.247 504.013 141.852C504.231 142.457 504.276 143.148 504.148 143.923C504.02 144.69 503.747 145.372 503.33 145.969C502.916 146.565 502.354 147.034 501.642 147.375C500.935 147.716 500.074 147.886 499.06 147.886H495.48L495.736 146.455H499.264C499.963 146.455 500.543 146.352 501.003 146.148C501.463 145.943 501.821 145.651 502.077 145.272C502.332 144.893 502.503 144.443 502.588 143.923C502.673 143.395 502.65 142.937 502.518 142.549C502.39 142.157 502.128 141.854 501.732 141.641C501.339 141.424 500.79 141.315 500.082 141.315H497.295L495.352 153H493.767ZM500.901 147.119L503.151 153H501.31L499.111 147.119H500.901Z" fill="#222222"/>
<path d="M600 103L354 296" stroke="#1E7D3A" stroke-width="2" stroke-dasharray="6 4"/>
<path d="M628.586 68.9552H627.539C627.527 68.649 627.464 68.3799 627.35 68.1481C627.235 67.9163 627.081 67.7217 626.886 67.5642C626.694 67.404 626.474 67.2838 626.225 67.2036C625.976 67.1235 625.71 67.0834 625.427 67.0834C624.883 67.0834 624.368 67.2222 623.881 67.4998C623.394 67.7746 622.978 68.1796 622.632 68.7148C622.285 69.2472 622.049 69.8997 621.923 70.6725C621.797 71.4224 621.816 72.0535 621.979 72.5658C622.142 73.0781 622.413 73.4659 622.791 73.7292C623.168 73.9925 623.618 74.1242 624.139 74.1242C624.439 74.1242 624.734 74.0841 625.023 74.004C625.315 73.9238 625.587 73.8051 625.839 73.6477C626.093 73.4874 626.32 73.2913 626.517 73.0595C626.717 72.8248 626.875 72.5558 626.989 72.2524H628.054C627.897 72.7017 627.683 73.1039 627.414 73.4588C627.148 73.8137 626.84 74.1156 626.491 74.3646C626.142 74.6108 625.766 74.7982 625.362 74.927C624.959 75.0558 624.539 75.1202 624.104 75.1202C623.343 75.1202 622.695 74.9342 622.159 74.5621C621.627 74.1872 621.246 73.6577 621.017 72.9736C620.791 72.2867 620.756 71.4739 620.91 70.5351C621.065 69.6192 621.361 68.8293 621.799 68.1653C622.237 67.4984 622.773 66.9861 623.409 66.6283C624.044 66.2677 624.734 66.0874 625.478 66.0874C625.925 66.0874 626.335 66.1518 626.71 66.2806C627.085 66.4094 627.411 66.5983 627.689 66.8473C627.967 67.0934 628.183 67.3939 628.337 67.7488C628.495 68.1009 628.578 68.503 628.586 68.9552ZM631.097 75.1546C630.679 75.1546 630.313 75.0758 629.998 74.9184C629.683 74.7582 629.45 74.5278 629.298 74.2272C629.146 73.9238 629.105 73.5575 629.173 73.1282C629.239 72.7504 629.367 72.4441 629.556 72.2094C629.744 71.9719 629.973 71.7859 630.242 71.6513C630.514 71.5139 630.806 71.4123 631.118 71.3465C631.433 71.2778 631.746 71.2249 632.058 71.1877C632.465 71.1362 632.795 71.0961 633.05 71.0675C633.305 71.0388 633.497 70.9916 633.625 70.9258C633.754 70.86 633.833 70.7469 633.862 70.5866V70.5523C633.93 70.1316 633.874 69.8038 633.694 69.5691C633.514 69.3316 633.192 69.2128 632.728 69.2128C632.247 69.2128 631.845 69.3187 631.522 69.5305C631.198 69.7423 630.959 69.9684 630.805 70.2088L629.912 69.8654C630.147 69.4647 630.427 69.1527 630.753 68.9295C631.08 68.7034 631.422 68.5459 631.779 68.4572C632.137 68.3656 632.482 68.3198 632.814 68.3198C633.026 68.3198 633.265 68.3456 633.531 68.3971C633.797 68.4458 634.046 68.5474 634.278 68.7019C634.513 68.8565 634.689 69.0897 634.806 69.4017C634.926 69.7137 634.943 70.1316 634.858 70.6553L634.136 75H633.123L633.278 74.107H633.226C633.135 74.2501 632.994 74.4033 632.805 74.5664C632.619 74.7295 632.383 74.8683 632.097 74.9828C631.814 75.0973 631.48 75.1546 631.097 75.1546ZM631.389 74.2444C631.789 74.2444 632.14 74.1657 632.441 74.0083C632.744 73.8509 632.987 73.6477 633.17 73.3986C633.356 73.1496 633.472 72.8878 633.518 72.613L633.673 71.6857C633.621 71.7372 633.52 71.7844 633.368 71.8274C633.216 71.8674 633.044 71.9032 632.853 71.9347C632.664 71.9633 632.479 71.9891 632.299 72.012C632.121 72.032 631.978 72.0492 631.87 72.0635C631.6 72.0978 631.344 72.1536 631.101 72.2309C630.861 72.3053 630.657 72.4184 630.491 72.5701C630.328 72.7189 630.227 72.9221 630.187 73.1797C630.127 73.5317 630.211 73.7979 630.44 73.9782C630.669 74.1557 630.985 74.2444 631.389 74.2444ZM635.986 75L637.085 68.4057H638.063L637.892 69.4361H637.978C638.175 69.084 638.443 68.8107 638.78 68.6161C639.121 68.4186 639.506 68.3198 639.935 68.3198C640.365 68.3198 640.71 68.4186 640.97 68.6161C641.23 68.8107 641.412 69.084 641.515 69.4361H641.584C641.807 69.0926 642.105 68.8207 642.477 68.6204C642.852 68.42 643.275 68.3198 643.748 68.3198C644.332 68.3198 644.781 68.5044 645.096 68.8737C645.413 69.2429 645.508 69.8139 645.379 70.5866L644.641 75H643.627L644.366 70.5866C644.443 70.0972 644.366 69.7495 644.134 69.5434C643.905 69.3345 643.61 69.23 643.25 69.23C642.786 69.23 642.404 69.3688 642.103 69.6464C641.803 69.924 641.618 70.2775 641.55 70.7068L640.828 75H639.798L640.554 70.4836C640.614 70.1058 640.542 69.8024 640.339 69.5734C640.136 69.3445 639.841 69.23 639.454 69.23C639.191 69.23 638.934 69.3015 638.682 69.4446C638.43 69.5849 638.214 69.7795 638.033 70.0285C637.853 70.2747 637.737 70.558 637.686 70.8786L636.999 75H635.986ZM649.241 75.1374C648.608 75.1374 648.086 74.9971 647.674 74.7167C647.262 74.4333 646.974 74.0383 646.811 73.5317C646.648 73.0223 646.622 72.4298 646.734 71.7544C646.845 71.0789 647.067 70.4836 647.399 69.9684C647.731 69.4504 648.145 69.0468 648.64 68.7577C649.135 68.4658 649.679 68.3198 650.271 68.3198C650.615 68.3198 650.945 68.3771 651.263 68.4916C651.581 68.606 651.855 68.7921 652.087 69.0497C652.319 69.3044 652.481 69.6421 652.572 70.0629C652.664 70.4836 652.658 71.0016 652.555 71.617L652.486 72.0463H647.403L647.541 71.1705H651.593C651.659 70.7984 651.642 70.4664 651.542 70.1745C651.445 69.8825 651.274 69.6521 651.031 69.4833C650.791 69.3144 650.486 69.23 650.117 69.23C649.736 69.23 649.381 69.333 649.052 69.5391C648.723 69.7423 648.448 69.9999 648.228 70.3119C648.007 70.621 647.87 70.9358 647.815 71.2564L647.695 72.012C647.609 72.5586 647.622 72.9937 647.734 73.3171C647.848 73.6405 648.047 73.8738 648.331 74.0169C648.614 74.1571 648.969 74.2272 649.395 74.2272C649.667 74.2272 649.918 74.19 650.147 74.1156C650.376 74.0383 650.58 73.9238 650.761 73.7722C650.941 73.6176 651.093 73.4258 651.216 73.1969L652.143 73.4716C651.986 73.8036 651.764 74.0956 651.477 74.3474C651.194 74.5964 650.862 74.7911 650.481 74.9313C650.104 75.0687 649.69 75.1374 649.241 75.1374ZM649.876 67.5127L651.25 65.5207H652.435L650.769 67.5127H649.876ZM653.553 75L654.652 68.4057H655.631L655.459 69.4017H655.528C655.7 69.0754 655.962 68.8107 656.314 68.6075C656.666 68.4043 657.039 68.3027 657.434 68.3027C657.512 68.3027 657.605 68.3041 657.713 68.307C657.822 68.307 657.907 68.3112 657.967 68.3198L657.795 69.3502C657.761 69.3416 657.683 69.3287 657.563 69.3116C657.443 69.2915 657.314 69.2815 657.177 69.2815C656.856 69.2815 656.56 69.3488 656.288 69.4833C656.016 69.6149 655.789 69.7981 655.605 70.0328C655.422 70.2646 655.305 70.5294 655.253 70.827L654.566 75H653.553ZM659.998 75.1546C659.58 75.1546 659.214 75.0758 658.899 74.9184C658.584 74.7582 658.351 74.5278 658.2 74.2272C658.048 73.9238 658.006 73.5575 658.075 73.1282C658.141 72.7504 658.268 72.4441 658.457 72.2094C658.646 71.9719 658.875 71.7859 659.144 71.6513C659.416 71.5139 659.708 71.4123 660.02 71.3465C660.335 71.2778 660.648 71.2249 660.96 71.1877C661.366 71.1362 661.697 71.0961 661.952 71.0675C662.206 71.0388 662.398 70.9916 662.527 70.9258C662.656 70.86 662.735 70.7469 662.763 70.5866V70.5523C662.832 70.1316 662.776 69.8038 662.596 69.5691C662.415 69.3316 662.093 69.2128 661.63 69.2128C661.149 69.2128 660.747 69.3187 660.423 69.5305C660.1 69.7423 659.861 69.9684 659.706 70.2088L658.813 69.8654C659.048 69.4647 659.329 69.1527 659.655 68.9295C659.981 68.7034 660.323 68.5459 660.681 68.4572C661.039 68.3656 661.384 68.3198 661.716 68.3198C661.927 68.3198 662.166 68.3456 662.433 68.3971C662.699 68.4458 662.948 68.5474 663.18 68.7019C663.414 68.8565 663.59 69.0897 663.708 69.4017C663.828 69.7137 663.845 70.1316 663.759 70.6553L663.038 75H662.025L662.179 74.107H662.128C662.036 74.2501 661.896 74.4033 661.707 74.5664C661.521 74.7295 661.285 74.8683 660.999 74.9828C660.715 75.0973 660.382 75.1546 659.998 75.1546ZM660.29 74.2444C660.691 74.2444 661.042 74.1657 661.342 74.0083C661.645 73.8509 661.889 73.6477 662.072 73.3986C662.258 73.1496 662.374 72.8878 662.42 72.613L662.574 71.6857C662.523 71.7372 662.421 71.7844 662.269 71.8274C662.118 71.8674 661.946 71.9032 661.754 71.9347C661.565 71.9633 661.381 71.9891 661.2 72.012C661.023 72.032 660.88 72.0492 660.771 72.0635C660.502 72.0978 660.246 72.1536 660.003 72.2309C659.762 72.3053 659.559 72.4184 659.393 72.5701C659.23 72.7189 659.128 72.9221 659.088 73.1797C659.028 73.5317 659.113 73.7979 659.341 73.9782C659.57 74.1557 659.887 74.2444 660.29 74.2444Z" fill="#1E7D3A"/>
<path d="M480 167L230 167" stroke="#888888" stroke-width="1.5" stroke-dasharray="4 3"/>
<path d="M286.388 53L286.536 52.169L290.21 48.7528C290.641 48.3527 291 48.0034 291.286 47.7049C291.575 47.4064 291.8 47.1263 291.96 46.8647C292.123 46.6031 292.229 46.3277 292.278 46.0384C292.334 45.706 292.305 45.4182 292.191 45.1751C292.077 44.9319 291.897 44.7442 291.651 44.6119C291.404 44.4795 291.109 44.4134 290.764 44.4134C290.401 44.4134 290.07 44.4888 289.772 44.6396C289.473 44.7873 289.225 44.9966 289.028 45.2674C288.831 45.5352 288.702 45.8475 288.641 46.2045H287.551C287.643 45.6506 287.854 45.1643 288.184 44.7457C288.516 44.3272 288.924 44.0009 289.407 43.767C289.893 43.5331 290.413 43.4162 290.967 43.4162C291.521 43.4162 291.991 43.5331 292.375 43.767C292.76 44.0009 293.039 44.3164 293.211 44.7134C293.383 45.1104 293.429 45.5521 293.349 46.0384C293.288 46.3892 293.166 46.7293 292.985 47.0586C292.803 47.3879 292.525 47.7557 292.149 48.1619C291.777 48.5651 291.272 49.0575 290.635 49.6392L288.142 51.9105L288.124 51.9844H292.518L292.352 53H286.388ZM295.459 48.2727C295.653 47.1094 295.981 46.0399 296.442 45.0643C296.907 44.0856 297.49 43.1854 298.192 42.3636H299.152C298.882 42.6683 298.612 43.0438 298.344 43.4901C298.08 43.9332 297.83 44.421 297.597 44.9535C297.366 45.4828 297.163 46.0307 296.987 46.5969C296.812 47.1632 296.678 47.7218 296.586 48.2727C296.462 49.0052 296.409 49.7485 296.424 50.5025C296.442 51.2565 296.518 51.9567 296.65 52.603C296.786 53.2493 296.967 53.7756 297.195 54.1818H296.235C295.81 53.3601 295.525 52.4614 295.381 51.4858C295.239 50.5071 295.265 49.4361 295.459 48.2727ZM308.202 43.5455L306.632 53H305.524L301.609 45.5767H301.517L300.28 53H299.135L300.705 43.5455H301.813L305.746 50.9872H305.838L307.075 43.5455H308.202ZM310.262 49.6854C310.028 49.6854 309.833 49.6054 309.676 49.4453C309.519 49.2822 309.437 49.0852 309.431 48.8544C309.428 48.6236 309.509 48.4312 309.676 48.2773C309.842 48.1204 310.037 48.0419 310.262 48.0419C310.49 48.0419 310.687 48.1219 310.853 48.282C311.019 48.442 311.099 48.6328 311.093 48.8544C311.09 49.0083 311.05 49.1483 310.973 49.2745C310.899 49.4007 310.799 49.5007 310.673 49.5746C310.55 49.6484 310.413 49.6854 310.262 49.6854ZM312.503 53L314.073 43.5455H315.218L313.814 51.9844H318.209L318.043 53H312.503ZM322.789 48.2727C322.595 49.4361 322.266 50.5071 321.801 51.4858C321.339 52.4614 320.757 53.3601 320.056 54.1818H319.096C319.369 53.8771 319.639 53.5017 319.903 53.0554C320.168 52.6122 320.416 52.1259 320.647 51.5966C320.881 51.0642 321.085 50.5148 321.261 49.9485C321.436 49.3791 321.57 48.8205 321.662 48.2727C321.785 47.5402 321.838 46.797 321.819 46.043C321.804 45.2889 321.728 44.5888 321.593 43.9425C321.461 43.2962 321.281 42.7699 321.053 42.3636H322.013C322.438 43.1854 322.721 44.0856 322.863 45.0643C323.007 46.0399 322.983 47.1094 322.789 48.2727ZM337.249 43.5455L335.679 53H334.571L330.656 45.5767H330.564L329.327 53H328.182L329.752 43.5455H330.859L334.793 50.9872H334.885L336.122 43.5455H337.249Z" fill="#666666"/>
<path d="M350 200C321 200 299.302 216.529 282 229" stroke="#C0392B" stroke-width="1.5"/>
<path d="M314.967 198.098L314.776 199.27H309.577L309.768 198.098H314.967ZM315.756 197.97L315.543 199.27C315.358 200.385 315.067 201.303 314.669 202.024C314.275 202.745 313.795 203.279 313.231 203.627C312.67 203.975 312.048 204.149 311.366 204.149C310.685 204.149 310.116 203.975 309.662 203.627C309.211 203.279 308.902 202.745 308.735 202.024C308.572 201.303 308.582 200.385 308.767 199.27L308.98 197.97C309.165 196.862 309.454 195.955 309.848 195.248C310.246 194.542 310.725 194.02 311.287 193.682C311.851 193.345 312.474 193.176 313.156 193.176C313.845 193.176 314.415 193.345 314.866 193.682C315.321 194.02 315.628 194.542 315.788 195.248C315.951 195.955 315.94 196.862 315.756 197.97ZM314.222 199.504L314.52 197.736C314.641 197.004 314.655 196.383 314.562 195.871C314.474 195.36 314.293 194.971 314.019 194.705C313.749 194.439 313.405 194.305 312.986 194.305C312.368 194.305 311.807 194.604 311.303 195.2C310.802 195.793 310.461 196.638 310.28 197.736L309.982 199.504C309.8 200.602 309.863 201.463 310.168 202.088C310.477 202.709 310.94 203.02 311.558 203.02C311.977 203.02 312.366 202.88 312.725 202.599C313.083 202.319 313.392 201.915 313.652 201.39C313.911 200.864 314.101 200.236 314.222 199.504Z" fill="#C0392B"/>
<path d="M350 200C377.5 200 397.715 218.809 414 233" stroke="#222222" stroke-width="1.5"/>
<path d="M393.967 200.098L393.776 201.27H388.577L388.768 200.098H393.967ZM394.756 199.97L394.543 201.27C394.358 202.385 394.067 203.303 393.669 204.024C393.275 204.745 392.795 205.279 392.231 205.627C391.67 205.975 391.048 206.149 390.366 206.149C389.685 206.149 389.116 205.975 388.662 205.627C388.211 205.279 387.902 204.745 387.735 204.024C387.572 203.303 387.582 202.385 387.767 201.27L387.98 199.97C388.165 198.862 388.454 197.955 388.848 197.248C389.246 196.542 389.725 196.02 390.287 195.682C390.851 195.345 391.474 195.176 392.156 195.176C392.845 195.176 393.415 195.345 393.866 195.682C394.321 196.02 394.628 196.542 394.788 197.248C394.951 197.955 394.94 198.862 394.756 199.97ZM393.222 201.504L393.52 199.736C393.641 199.004 393.655 198.383 393.562 197.871C393.474 197.36 393.293 196.971 393.019 196.705C392.749 196.439 392.405 196.305 391.986 196.305C391.368 196.305 390.807 196.604 390.303 197.2C389.802 197.793 389.461 198.638 389.28 199.736L388.982 201.504C388.8 202.602 388.863 203.463 389.168 204.088C389.477 204.709 389.94 205.02 390.558 205.02C390.977 205.02 391.366 204.88 391.725 204.599C392.083 204.319 392.392 203.915 392.652 203.39C392.911 202.864 393.101 202.236 393.222 201.504Z" fill="#222222"/>
<path d="M280.771 369L282.945 355.909H287.611C288.625 355.909 289.437 356.084 290.046 356.433C290.66 356.778 291.082 357.26 291.312 357.878C291.546 358.491 291.597 359.203 291.465 360.013C291.329 360.814 291.041 361.517 290.602 362.122C290.168 362.727 289.586 363.2 288.857 363.541C288.133 363.878 287.264 364.046 286.249 364.046H282.715L283.009 362.346H286.364C287.008 362.346 287.545 362.254 287.975 362.071C288.406 361.888 288.742 361.621 288.985 361.272C289.232 360.923 289.394 360.503 289.471 360.013C289.552 359.514 289.528 359.086 289.401 358.728C289.273 358.366 289.024 358.089 288.653 357.897C288.282 357.701 287.773 357.603 287.125 357.603H284.645L282.747 369H280.771ZM288.212 363.094L290.468 369H288.218L286.019 363.094H288.212ZM298.915 361.323L299.196 359.648H307.391L307.11 361.323H298.915ZM298.27 365.261L298.544 363.586H306.733L306.458 365.261H298.27ZM313.762 369L314.012 367.568L319.189 362.979C319.743 362.48 320.206 362.043 320.576 361.668C320.951 361.289 321.243 360.929 321.452 360.588C321.665 360.247 321.806 359.885 321.874 359.501C321.946 359.067 321.908 358.692 321.759 358.376C321.614 358.057 321.382 357.812 321.062 357.641C320.742 357.467 320.359 357.379 319.911 357.379C319.443 357.379 319.017 357.475 318.633 357.667C318.25 357.859 317.93 358.129 317.674 358.479C317.419 358.828 317.25 359.237 317.169 359.706H315.29C315.422 358.909 315.725 358.212 316.198 357.616C316.671 357.019 317.257 356.557 317.956 356.229C318.654 355.896 319.411 355.73 320.225 355.73C321.051 355.73 321.748 355.894 322.315 356.222C322.886 356.546 323.299 356.989 323.555 357.552C323.811 358.11 323.879 358.741 323.759 359.444C323.674 359.934 323.502 360.411 323.242 360.876C322.982 361.336 322.581 361.852 322.04 362.423C321.499 362.989 320.762 363.678 319.828 364.487L316.786 367.21L316.767 367.306H322.654L322.379 369H313.762ZM331.246 362.455C331.51 360.852 331.964 359.378 332.608 358.031C333.251 356.685 334.074 355.442 335.075 354.305H336.826C336.443 354.727 336.064 355.244 335.689 355.858C335.314 356.472 334.964 357.145 334.64 357.878C334.316 358.607 334.031 359.363 333.784 360.147C333.541 360.927 333.356 361.696 333.228 362.455C333.057 363.469 332.985 364.496 333.01 365.536C333.04 366.575 333.151 367.54 333.343 368.431C333.539 369.322 333.801 370.048 334.129 370.611H332.371C331.753 369.473 331.344 368.231 331.144 366.884C330.944 365.538 330.978 364.061 331.246 362.455ZM349.286 355.909L347.113 369H345.297L340.241 359.399H340.126L338.522 369H336.547L338.72 355.909H340.548L345.611 365.523H345.732L347.33 355.909H349.286ZM356.79 364.538C356.432 364.538 356.134 364.415 355.896 364.168C355.661 363.92 355.546 363.618 355.55 363.26C355.555 362.906 355.687 362.61 355.947 362.371C356.211 362.129 356.518 362.007 356.867 362.007C357.217 362.007 357.515 362.131 357.762 362.378C358.009 362.625 358.124 362.919 358.107 363.26C358.094 363.499 358.026 363.716 357.903 363.912C357.783 364.104 357.626 364.257 357.43 364.372C357.234 364.483 357.021 364.538 356.79 364.538ZM364.619 369L366.792 355.909H368.767L366.875 367.3H372.807L372.526 369H364.619ZM379.401 362.455C379.132 364.061 378.676 365.538 378.033 366.884C377.394 368.231 376.571 369.473 375.565 370.611H373.814C374.202 370.189 374.581 369.671 374.952 369.058C375.327 368.444 375.676 367.773 376 367.044C376.328 366.311 376.614 365.553 376.857 364.768C377.1 363.984 377.285 363.213 377.413 362.455C377.583 361.445 377.653 360.42 377.624 359.38C377.598 358.34 377.487 357.375 377.291 356.484C377.1 355.594 376.84 354.867 376.511 354.305H378.269C378.887 355.442 379.296 356.685 379.497 358.031C379.697 359.378 379.665 360.852 379.401 362.455ZM399.085 355.909L396.912 369H395.096L390.04 359.399H389.925L388.321 369H386.346L388.519 355.909H390.347L395.41 365.523H395.531L397.129 355.909H399.085ZM414.56 361.598L414.266 363.311H405.829L406.123 361.598H414.56ZM421.309 369L423.482 355.909H425.457L423.565 367.3H429.497L429.215 369H421.309Z" fill="#222222"/>
<path d="M181.255 390V380.545H182.4V388.984H186.795V390H181.255ZM191.3 390.148C190.66 390.148 190.098 389.995 189.615 389.691C189.135 389.386 188.76 388.96 188.489 388.412C188.221 387.864 188.087 387.224 188.087 386.491C188.087 385.753 188.221 385.108 188.489 384.557C188.76 384.006 189.135 383.578 189.615 383.274C190.098 382.969 190.66 382.817 191.3 382.817C191.94 382.817 192.5 382.969 192.981 383.274C193.464 383.578 193.839 384.006 194.107 384.557C194.378 385.108 194.513 385.753 194.513 386.491C194.513 387.224 194.378 387.864 194.107 388.412C193.839 388.96 193.464 389.386 192.981 389.691C192.5 389.995 191.94 390.148 191.3 390.148ZM191.3 389.169C191.786 389.169 192.187 389.044 192.5 388.795C192.814 388.546 193.047 388.218 193.198 387.812C193.348 387.406 193.424 386.965 193.424 386.491C193.424 386.018 193.348 385.576 193.198 385.167C193.047 384.757 192.814 384.426 192.5 384.174C192.187 383.922 191.786 383.795 191.3 383.795C190.814 383.795 190.414 383.922 190.1 384.174C189.786 384.426 189.554 384.757 189.403 385.167C189.252 385.576 189.177 386.018 189.177 386.491C189.177 386.965 189.252 387.406 189.403 387.812C189.554 388.218 189.786 388.546 190.1 388.795C190.414 389.044 190.814 389.169 191.3 389.169ZM196.176 390V382.909H197.266V390H196.176ZM196.73 381.727C196.518 381.727 196.335 381.655 196.181 381.51C196.03 381.366 195.955 381.192 195.955 380.989C195.955 380.786 196.03 380.612 196.181 380.467C196.335 380.322 196.518 380.25 196.73 380.25C196.943 380.25 197.124 380.322 197.275 380.467C197.429 380.612 197.506 380.786 197.506 380.989C197.506 381.192 197.429 381.366 197.275 381.51C197.124 381.655 196.943 381.727 196.73 381.727ZM205.595 390.148C205.004 390.148 204.483 389.998 204.03 389.7C203.578 389.398 203.224 388.974 202.968 388.426C202.713 387.875 202.585 387.224 202.585 386.473C202.585 385.728 202.713 385.082 202.968 384.534C203.224 383.986 203.579 383.563 204.035 383.265C204.49 382.966 205.017 382.817 205.614 382.817C206.075 382.817 206.44 382.894 206.708 383.048C206.979 383.198 207.185 383.371 207.326 383.565C207.471 383.755 207.583 383.912 207.663 384.036H207.756V380.545H208.845V390H207.793V388.911H207.663C207.583 389.04 207.469 389.203 207.322 389.4C207.174 389.594 206.963 389.768 206.689 389.922C206.415 390.072 206.051 390.148 205.595 390.148ZM205.743 389.169C206.18 389.169 206.549 389.055 206.851 388.827C207.152 388.597 207.382 388.278 207.539 387.872C207.696 387.462 207.774 386.99 207.774 386.455C207.774 385.925 207.697 385.462 207.543 385.065C207.389 384.665 207.162 384.354 206.86 384.132C206.558 383.908 206.186 383.795 205.743 383.795C205.281 383.795 204.896 383.914 204.589 384.151C204.284 384.385 204.055 384.703 203.901 385.107C203.75 385.507 203.675 385.956 203.675 386.455C203.675 386.959 203.752 387.418 203.905 387.83C204.062 388.24 204.293 388.566 204.598 388.809C204.906 389.049 205.287 389.169 205.743 389.169ZM213.965 390.148C213.282 390.148 212.692 389.997 212.197 389.695C211.704 389.391 211.324 388.966 211.056 388.421C210.792 387.873 210.659 387.236 210.659 386.51C210.659 385.784 210.792 385.143 211.056 384.589C211.324 384.032 211.697 383.598 212.174 383.288C212.654 382.974 213.214 382.817 213.854 382.817C214.223 382.817 214.588 382.878 214.948 383.001C215.308 383.125 215.636 383.325 215.931 383.602C216.227 383.875 216.462 384.239 216.638 384.691C216.813 385.143 216.901 385.701 216.901 386.362V386.824H211.435V385.882H215.793C215.793 385.482 215.713 385.125 215.553 384.811C215.396 384.497 215.171 384.249 214.879 384.068C214.59 383.886 214.248 383.795 213.854 383.795C213.42 383.795 213.045 383.903 212.728 384.119C212.414 384.331 212.172 384.608 212.003 384.95C211.834 385.291 211.749 385.657 211.749 386.048V386.676C211.749 387.212 211.841 387.666 212.026 388.038C212.214 388.407 212.474 388.689 212.806 388.883C213.138 389.074 213.525 389.169 213.965 389.169C214.251 389.169 214.51 389.129 214.74 389.049C214.974 388.966 215.176 388.843 215.345 388.68C215.514 388.513 215.645 388.307 215.738 388.061L216.79 388.357C216.679 388.714 216.493 389.027 216.231 389.298C215.97 389.566 215.647 389.775 215.262 389.926C214.877 390.074 214.445 390.148 213.965 390.148ZM225.28 390H222.362V380.545H225.409C226.326 380.545 227.111 380.735 227.763 381.113C228.416 381.489 228.916 382.029 229.264 382.734C229.612 383.435 229.785 384.276 229.785 385.254C229.785 386.239 229.61 387.087 229.259 387.798C228.908 388.506 228.397 389.051 227.727 389.432C227.056 389.811 226.24 390 225.28 390ZM223.507 388.984H225.206C225.988 388.984 226.635 388.834 227.149 388.532C227.663 388.23 228.047 387.801 228.299 387.244C228.551 386.687 228.678 386.024 228.678 385.254C228.678 384.491 228.553 383.834 228.304 383.283C228.054 382.729 227.682 382.304 227.186 382.009C226.691 381.71 226.074 381.561 225.335 381.561H223.507V388.984ZM234.531 390.148C233.848 390.148 233.259 389.997 232.763 389.695C232.271 389.391 231.891 388.966 231.623 388.421C231.358 387.873 231.226 387.236 231.226 386.51C231.226 385.784 231.358 385.143 231.623 384.589C231.891 384.032 232.263 383.598 232.74 383.288C233.22 382.974 233.78 382.817 234.42 382.817C234.79 382.817 235.154 382.878 235.515 383.001C235.875 383.125 236.202 383.325 236.498 383.602C236.793 383.875 237.029 384.239 237.204 384.691C237.38 385.143 237.467 385.701 237.467 386.362V386.824H232.001V385.882H236.359C236.359 385.482 236.279 385.125 236.119 384.811C235.962 384.497 235.738 384.249 235.445 384.068C235.156 383.886 234.814 383.795 234.42 383.795C233.986 383.795 233.611 383.903 233.294 384.119C232.98 384.331 232.738 384.608 232.569 384.95C232.4 385.291 232.315 385.657 232.315 386.048V386.676C232.315 387.212 232.408 387.666 232.592 388.038C232.78 388.407 233.04 388.689 233.372 388.883C233.705 389.074 234.091 389.169 234.531 389.169C234.817 389.169 235.076 389.129 235.307 389.049C235.541 388.966 235.742 388.843 235.912 388.68C236.081 388.513 236.212 388.307 236.304 388.061L237.356 388.357C237.246 388.714 237.059 389.027 236.798 389.298C236.536 389.566 236.213 389.775 235.828 389.926C235.444 390.074 235.011 390.148 234.531 390.148ZM244.147 384.497L243.169 384.774C243.107 384.611 243.016 384.453 242.896 384.299C242.779 384.142 242.619 384.012 242.416 383.911C242.213 383.809 241.953 383.759 241.636 383.759C241.202 383.759 240.84 383.859 240.551 384.059C240.265 384.256 240.122 384.506 240.122 384.811C240.122 385.082 240.22 385.296 240.417 385.453C240.614 385.61 240.922 385.741 241.341 385.845L242.393 386.104C243.027 386.258 243.499 386.493 243.81 386.81C244.121 387.124 244.277 387.529 244.277 388.024C244.277 388.43 244.16 388.794 243.926 389.114C243.695 389.434 243.372 389.686 242.956 389.871C242.541 390.055 242.058 390.148 241.507 390.148C240.783 390.148 240.185 389.991 239.711 389.677C239.237 389.363 238.937 388.904 238.811 388.301L239.845 388.043C239.943 388.424 240.129 388.71 240.403 388.901C240.68 389.092 241.042 389.188 241.488 389.188C241.996 389.188 242.399 389.08 242.698 388.864C242.999 388.646 243.15 388.384 243.15 388.08C243.15 387.833 243.064 387.627 242.892 387.461C242.719 387.292 242.455 387.165 242.098 387.082L240.916 386.805C240.266 386.652 239.789 386.413 239.485 386.09C239.183 385.764 239.032 385.356 239.032 384.866C239.032 384.466 239.145 384.112 239.369 383.805C239.597 383.497 239.906 383.255 240.297 383.08C240.691 382.904 241.137 382.817 241.636 382.817C242.338 382.817 242.889 382.971 243.289 383.278C243.692 383.586 243.978 383.992 244.147 384.497ZM248.797 390.148C248.133 390.148 247.56 389.991 247.08 389.677C246.6 389.363 246.231 388.931 245.972 388.38C245.713 387.829 245.584 387.199 245.584 386.491C245.584 385.771 245.717 385.136 245.981 384.585C246.249 384.031 246.621 383.598 247.098 383.288C247.579 382.974 248.139 382.817 248.779 382.817C249.277 382.817 249.727 382.909 250.127 383.094C250.527 383.278 250.855 383.537 251.11 383.869C251.366 384.202 251.524 384.589 251.586 385.033H250.496C250.413 384.71 250.228 384.423 249.942 384.174C249.659 383.922 249.277 383.795 248.797 383.795C248.373 383.795 248 383.906 247.68 384.128C247.363 384.346 247.115 384.656 246.937 385.056C246.761 385.453 246.674 385.919 246.674 386.455C246.674 387.002 246.76 387.479 246.932 387.886C247.108 388.292 247.354 388.607 247.671 388.832C247.991 389.057 248.366 389.169 248.797 389.169C249.08 389.169 249.337 389.12 249.568 389.021C249.799 388.923 249.994 388.781 250.155 388.597C250.315 388.412 250.428 388.19 250.496 387.932H251.586C251.524 388.35 251.372 388.727 251.129 389.063C250.889 389.395 250.57 389.66 250.173 389.857C249.779 390.051 249.32 390.148 248.797 390.148ZM255.265 390.166C254.816 390.166 254.408 390.082 254.042 389.912C253.675 389.74 253.385 389.492 253.169 389.169C252.954 388.843 252.846 388.449 252.846 387.987C252.846 387.581 252.926 387.252 253.086 386.999C253.246 386.744 253.46 386.544 253.728 386.399C253.995 386.254 254.291 386.147 254.614 386.076C254.94 386.002 255.268 385.944 255.597 385.901C256.028 385.845 256.378 385.804 256.645 385.776C256.916 385.745 257.113 385.694 257.236 385.624C257.362 385.553 257.425 385.43 257.425 385.254V385.217C257.425 384.762 257.301 384.408 257.052 384.156C256.805 383.903 256.431 383.777 255.93 383.777C255.41 383.777 255.002 383.891 254.706 384.119C254.411 384.346 254.203 384.589 254.083 384.848L253.049 384.479C253.234 384.048 253.48 383.712 253.788 383.472C254.099 383.229 254.437 383.06 254.803 382.964C255.173 382.866 255.536 382.817 255.893 382.817C256.121 382.817 256.382 382.844 256.678 382.9C256.976 382.952 257.264 383.061 257.541 383.228C257.821 383.394 258.053 383.645 258.238 383.98C258.423 384.316 258.515 384.765 258.515 385.328V390H257.425V389.04H257.37C257.296 389.194 257.173 389.358 257.001 389.534C256.828 389.709 256.599 389.858 256.313 389.982C256.027 390.105 255.677 390.166 255.265 390.166ZM255.431 389.188C255.862 389.188 256.225 389.103 256.521 388.934C256.819 388.764 257.044 388.546 257.195 388.278C257.349 388.01 257.425 387.729 257.425 387.433V386.436C257.379 386.491 257.278 386.542 257.121 386.588C256.967 386.632 256.788 386.67 256.585 386.704C256.385 386.735 256.19 386.762 255.999 386.787C255.811 386.808 255.659 386.827 255.542 386.842C255.259 386.879 254.994 386.939 254.748 387.022C254.505 387.102 254.308 387.224 254.157 387.387C254.009 387.547 253.935 387.766 253.935 388.043C253.935 388.421 254.075 388.707 254.356 388.901C254.639 389.092 254.997 389.188 255.431 389.188ZM260.504 390V382.909H261.556V383.98H261.63C261.759 383.629 261.993 383.345 262.332 383.126C262.67 382.908 263.052 382.798 263.477 382.798C263.557 382.798 263.657 382.8 263.777 382.803C263.897 382.806 263.987 382.811 264.049 382.817V383.925C264.012 383.915 263.927 383.902 263.795 383.883C263.666 383.862 263.529 383.851 263.384 383.851C263.039 383.851 262.732 383.923 262.461 384.068C262.193 384.209 261.981 384.406 261.824 384.659C261.67 384.908 261.593 385.193 261.593 385.513V390H260.504ZM268.869 382.909V383.832H265.194V382.909H268.869ZM266.265 381.21H267.354V387.969C267.354 388.277 267.399 388.507 267.488 388.661C267.581 388.812 267.698 388.914 267.839 388.966C267.984 389.015 268.136 389.04 268.296 389.04C268.416 389.04 268.515 389.034 268.592 389.021C268.669 389.006 268.73 388.994 268.776 388.984L268.998 389.963C268.924 389.991 268.821 390.018 268.689 390.046C268.556 390.077 268.388 390.092 268.185 390.092C267.878 390.092 267.576 390.026 267.28 389.894C266.988 389.761 266.745 389.56 266.551 389.289C266.36 389.018 266.265 388.677 266.265 388.264V381.21ZM273.404 390.148C272.721 390.148 272.132 389.997 271.636 389.695C271.144 389.391 270.764 388.966 270.496 388.421C270.231 387.873 270.099 387.236 270.099 386.51C270.099 385.784 270.231 385.143 270.496 384.589C270.764 384.032 271.136 383.598 271.613 383.288C272.093 382.974 272.653 382.817 273.293 382.817C273.663 382.817 274.027 382.878 274.388 383.001C274.748 383.125 275.075 383.325 275.371 383.602C275.666 383.875 275.902 384.239 276.077 384.691C276.253 385.143 276.34 385.701 276.34 386.362V386.824H270.874V385.882H275.232C275.232 385.482 275.152 385.125 274.992 384.811C274.835 384.497 274.611 384.249 274.318 384.068C274.029 383.886 273.687 383.795 273.293 383.795C272.86 383.795 272.484 383.903 272.167 384.119C271.853 384.331 271.612 384.608 271.442 384.95C271.273 385.291 271.188 385.657 271.188 386.048V386.676C271.188 387.212 271.281 387.666 271.465 388.038C271.653 388.407 271.913 388.689 272.246 388.883C272.578 389.074 272.964 389.169 273.404 389.169C273.69 389.169 273.949 389.129 274.18 389.049C274.414 388.966 274.615 388.843 274.785 388.68C274.954 388.513 275.085 388.307 275.177 388.061L276.23 388.357C276.119 388.714 275.933 389.027 275.671 389.298C275.409 389.566 275.086 389.775 274.701 389.926C274.317 390.074 273.884 390.148 273.404 390.148ZM283.02 384.497L282.042 384.774C281.98 384.611 281.889 384.453 281.769 384.299C281.652 384.142 281.492 384.012 281.289 383.911C281.086 383.809 280.826 383.759 280.509 383.759C280.075 383.759 279.713 383.859 279.424 384.059C279.138 384.256 278.995 384.506 278.995 384.811C278.995 385.082 279.093 385.296 279.29 385.453C279.487 385.61 279.795 385.741 280.214 385.845L281.266 386.104C281.9 386.258 282.373 386.493 282.683 386.81C282.994 387.124 283.15 387.529 283.15 388.024C283.15 388.43 283.033 388.794 282.799 389.114C282.568 389.434 282.245 389.686 281.829 389.871C281.414 390.055 280.931 390.148 280.38 390.148C279.657 390.148 279.058 389.991 278.584 389.677C278.11 389.363 277.81 388.904 277.684 388.301L278.718 388.043C278.816 388.424 279.003 388.71 279.276 388.901C279.553 389.092 279.915 389.188 280.361 389.188C280.869 389.188 281.272 389.08 281.571 388.864C281.872 388.646 282.023 388.384 282.023 388.08C282.023 387.833 281.937 387.627 281.765 387.461C281.592 387.292 281.328 387.165 280.971 387.082L279.789 386.805C279.139 386.652 278.662 386.413 278.358 386.09C278.056 385.764 277.905 385.356 277.905 384.866C277.905 384.466 278.018 384.112 278.242 383.805C278.47 383.497 278.779 383.255 279.17 383.08C279.564 382.904 280.01 382.817 280.509 382.817C281.211 382.817 281.762 382.971 282.162 383.278C282.565 383.586 282.851 383.992 283.02 384.497ZM289.24 390.074C289.012 390.074 288.817 389.992 288.654 389.829C288.491 389.666 288.409 389.471 288.409 389.243C288.409 389.015 288.491 388.82 288.654 388.657C288.817 388.493 289.012 388.412 289.24 388.412C289.468 388.412 289.663 388.493 289.826 388.657C289.989 388.82 290.071 389.015 290.071 389.243C290.071 389.394 290.032 389.532 289.955 389.658C289.882 389.785 289.782 389.886 289.655 389.963C289.532 390.037 289.394 390.074 289.24 390.074ZM289.24 384.811C289.012 384.811 288.817 384.73 288.654 384.566C288.491 384.403 288.409 384.208 288.409 383.98C288.409 383.752 288.491 383.557 288.654 383.394C288.817 383.231 289.012 383.149 289.24 383.149C289.468 383.149 289.663 383.231 289.826 383.394C289.989 383.557 290.071 383.752 290.071 383.98C290.071 384.131 290.032 384.269 289.955 384.396C289.882 384.522 289.782 384.623 289.655 384.7C289.532 384.774 289.394 384.811 289.24 384.811ZM296.772 380.545V390H295.682V380.545H296.772ZM299.709 380.545V383.795H298.693V380.545H299.709ZM303.736 390.166C303.286 390.166 302.879 390.082 302.512 389.912C302.146 389.74 301.855 389.492 301.64 389.169C301.424 388.843 301.317 388.449 301.317 387.987C301.317 387.581 301.397 387.252 301.557 386.999C301.717 386.744 301.931 386.544 302.198 386.399C302.466 386.254 302.762 386.147 303.085 386.076C303.411 386.002 303.739 385.944 304.068 385.901C304.499 385.845 304.848 385.804 305.116 385.776C305.387 385.745 305.584 385.694 305.707 385.624C305.833 385.553 305.896 385.43 305.896 385.254V385.217C305.896 384.762 305.772 384.408 305.522 384.156C305.276 383.903 304.902 383.777 304.4 383.777C303.88 383.777 303.473 383.891 303.177 384.119C302.882 384.346 302.674 384.589 302.554 384.848L301.52 384.479C301.704 384.048 301.951 383.712 302.258 383.472C302.569 383.229 302.908 383.06 303.274 382.964C303.643 382.866 304.006 382.817 304.364 382.817C304.591 382.817 304.853 382.844 305.148 382.9C305.447 382.952 305.735 383.061 306.012 383.228C306.292 383.394 306.524 383.645 306.709 383.98C306.893 384.316 306.986 384.765 306.986 385.328V390H305.896V389.04H305.841C305.767 389.194 305.644 389.358 305.471 389.534C305.299 389.709 305.07 389.858 304.784 389.982C304.497 390.105 304.148 390.166 303.736 390.166ZM303.902 389.188C304.333 389.188 304.696 389.103 304.991 388.934C305.29 388.764 305.515 388.546 305.665 388.278C305.819 388.01 305.896 387.729 305.896 387.433V386.436C305.85 386.491 305.748 386.542 305.591 386.588C305.438 386.632 305.259 386.67 305.056 386.704C304.856 386.735 304.66 386.762 304.47 386.787C304.282 386.808 304.13 386.827 304.013 386.842C303.73 386.879 303.465 386.939 303.219 387.022C302.975 387.102 302.779 387.224 302.628 387.387C302.48 387.547 302.406 387.766 302.406 388.043C302.406 388.421 302.546 388.707 302.826 388.901C303.109 389.092 303.468 389.188 303.902 389.188ZM310.064 385.734V390H308.974V382.909H310.027V384.017H310.119C310.285 383.657 310.538 383.368 310.876 383.149C311.215 382.928 311.652 382.817 312.187 382.817C312.667 382.817 313.087 382.915 313.448 383.112C313.808 383.306 314.088 383.602 314.288 383.999C314.488 384.393 314.588 384.891 314.588 385.494V390H313.498V385.568C313.498 385.011 313.354 384.577 313.064 384.266C312.775 383.952 312.378 383.795 311.873 383.795C311.526 383.795 311.215 383.871 310.941 384.022C310.67 384.172 310.456 384.393 310.299 384.682C310.142 384.971 310.064 385.322 310.064 385.734ZM319.441 392.807C318.915 392.807 318.462 392.739 318.084 392.604C317.705 392.471 317.39 392.296 317.137 392.077C316.888 391.862 316.689 391.631 316.542 391.385L317.41 390.776C317.508 390.905 317.633 391.053 317.784 391.219C317.934 391.388 318.141 391.534 318.402 391.657C318.667 391.783 319.013 391.847 319.441 391.847C320.013 391.847 320.486 391.708 320.858 391.431C321.231 391.154 321.417 390.72 321.417 390.129V388.689H321.324C321.244 388.818 321.131 388.978 320.983 389.169C320.838 389.357 320.629 389.525 320.355 389.672C320.084 389.817 319.718 389.889 319.256 389.889C318.684 389.889 318.17 389.754 317.714 389.483C317.262 389.212 316.903 388.818 316.639 388.301C316.377 387.784 316.246 387.156 316.246 386.418C316.246 385.691 316.374 385.059 316.629 384.52C316.885 383.979 317.24 383.56 317.696 383.265C318.151 382.966 318.678 382.817 319.275 382.817C319.736 382.817 320.103 382.894 320.373 383.048C320.647 383.198 320.857 383.371 321.001 383.565C321.149 383.755 321.263 383.912 321.343 384.036H321.454V382.909H322.506V390.203C322.506 390.812 322.368 391.308 322.091 391.69C321.817 392.074 321.448 392.356 320.983 392.534C320.521 392.716 320.007 392.807 319.441 392.807ZM319.404 388.911C319.841 388.911 320.21 388.81 320.512 388.61C320.814 388.41 321.043 388.123 321.2 387.747C321.357 387.372 321.435 386.922 321.435 386.399C321.435 385.888 321.358 385.437 321.204 385.047C321.051 384.656 320.823 384.349 320.521 384.128C320.22 383.906 319.847 383.795 319.404 383.795C318.942 383.795 318.558 383.912 318.25 384.146C317.945 384.38 317.716 384.694 317.562 385.088C317.411 385.482 317.336 385.919 317.336 386.399C317.336 386.892 317.413 387.327 317.567 387.706C317.724 388.081 317.954 388.377 318.259 388.592C318.567 388.804 318.948 388.911 319.404 388.911ZM325.59 380.545V390H324.501V380.545H325.59ZM330.559 390.148C329.875 390.148 329.286 389.997 328.79 389.695C328.298 389.391 327.918 388.966 327.65 388.421C327.385 387.873 327.253 387.236 327.253 386.51C327.253 385.784 327.385 385.143 327.65 384.589C327.918 384.032 328.29 383.598 328.767 383.288C329.247 382.974 329.808 382.817 330.448 382.817C330.817 382.817 331.182 382.878 331.542 383.001C331.902 383.125 332.23 383.325 332.525 383.602C332.821 383.875 333.056 384.239 333.231 384.691C333.407 385.143 333.495 385.701 333.495 386.362V386.824H328.029V385.882H332.387C332.387 385.482 332.307 385.125 332.147 384.811C331.99 384.497 331.765 384.249 331.473 384.068C331.183 383.886 330.842 383.795 330.448 383.795C330.014 383.795 329.638 383.903 329.321 384.119C329.007 384.331 328.766 384.608 328.597 384.95C328.427 385.291 328.343 385.657 328.343 386.048V386.676C328.343 387.212 328.435 387.666 328.62 388.038C328.807 388.407 329.067 388.689 329.4 388.883C329.732 389.074 330.118 389.169 330.559 389.169C330.845 389.169 331.103 389.129 331.334 389.049C331.568 388.966 331.77 388.843 331.939 388.68C332.108 388.513 332.239 388.307 332.331 388.061L333.384 388.357C333.273 388.714 333.087 389.027 332.825 389.298C332.564 389.566 332.24 389.775 331.856 389.926C331.471 390.074 331.039 390.148 330.559 390.148ZM341.486 390.148C340.895 390.148 340.373 389.998 339.921 389.7C339.468 389.398 339.114 388.974 338.859 388.426C338.604 387.875 338.476 387.224 338.476 386.473C338.476 385.728 338.604 385.082 338.859 384.534C339.114 383.986 339.47 383.563 339.925 383.265C340.381 382.966 340.907 382.817 341.504 382.817C341.966 382.817 342.331 382.894 342.598 383.048C342.869 383.198 343.075 383.371 343.217 383.565C343.362 383.755 343.474 383.912 343.554 384.036H343.646V380.545H344.736V390H343.683V388.911H343.554C343.474 389.04 343.36 389.203 343.212 389.4C343.065 389.594 342.854 389.768 342.58 389.922C342.306 390.072 341.941 390.148 341.486 390.148ZM341.633 389.169C342.071 389.169 342.44 389.055 342.741 388.827C343.043 388.597 343.272 388.278 343.429 387.872C343.586 387.462 343.665 386.99 343.665 386.455C343.665 385.925 343.588 385.462 343.434 385.065C343.28 384.665 343.052 384.354 342.751 384.132C342.449 383.908 342.077 383.795 341.633 383.795C341.172 383.795 340.787 383.914 340.479 384.151C340.175 384.385 339.945 384.703 339.792 385.107C339.641 385.507 339.565 385.956 339.565 386.455C339.565 386.959 339.642 387.418 339.796 387.83C339.953 388.24 340.184 388.566 340.489 388.809C340.796 389.049 341.178 389.169 341.633 389.169ZM347.824 380.545V383.795H346.809V380.545H347.824ZM349.764 390V382.909H350.854V390H349.764ZM350.318 381.727C350.106 381.727 349.923 381.655 349.769 381.51C349.618 381.366 349.543 381.192 349.543 380.989C349.543 380.786 349.618 380.612 349.769 380.467C349.923 380.322 350.106 380.25 350.318 380.25C350.531 380.25 350.712 380.322 350.863 380.467C351.017 380.612 351.094 380.786 351.094 380.989C351.094 381.192 351.017 381.366 350.863 381.51C350.712 381.655 350.531 381.727 350.318 381.727ZM353.939 385.734V390H352.849V382.909H353.902V384.017H353.994C354.16 383.657 354.413 383.368 354.751 383.149C355.09 382.928 355.527 382.817 356.062 382.817C356.542 382.817 356.962 382.915 357.323 383.112C357.683 383.306 357.963 383.602 358.163 383.999C358.363 384.393 358.463 384.891 358.463 385.494V390H357.373V385.568C357.373 385.011 357.229 384.577 356.939 384.266C356.65 383.952 356.253 383.795 355.748 383.795C355.401 383.795 355.09 383.871 354.816 384.022C354.545 384.172 354.331 384.393 354.174 384.682C354.017 384.971 353.939 385.322 353.939 385.734ZM363.334 390.148C362.67 390.148 362.097 389.991 361.617 389.677C361.137 389.363 360.768 388.931 360.509 388.38C360.251 387.829 360.121 387.199 360.121 386.491C360.121 385.771 360.254 385.136 360.518 384.585C360.786 384.031 361.158 383.598 361.636 383.288C362.116 382.974 362.676 382.817 363.316 382.817C363.814 382.817 364.264 382.909 364.664 383.094C365.064 383.278 365.392 383.537 365.647 383.869C365.903 384.202 366.061 384.589 366.123 385.033H365.033C364.95 384.71 364.765 384.423 364.479 384.174C364.196 383.922 363.814 383.795 363.334 383.795C362.91 383.795 362.537 383.906 362.217 384.128C361.9 384.346 361.652 384.656 361.474 385.056C361.299 385.453 361.211 385.919 361.211 386.455C361.211 387.002 361.297 387.479 361.469 387.886C361.645 388.292 361.891 388.607 362.208 388.832C362.528 389.057 362.904 389.169 363.334 389.169C363.618 389.169 363.875 389.12 364.105 389.021C364.336 388.923 364.532 388.781 364.692 388.597C364.852 388.412 364.966 388.19 365.033 387.932H366.123C366.061 388.35 365.909 388.727 365.666 389.063C365.426 389.395 365.107 389.66 364.71 389.857C364.316 390.051 363.858 390.148 363.334 390.148ZM367.715 390V382.909H368.805V390H367.715ZM368.269 381.727C368.057 381.727 367.874 381.655 367.72 381.51C367.569 381.366 367.494 381.192 367.494 380.989C367.494 380.786 367.569 380.612 367.72 380.467C367.874 380.322 368.057 380.25 368.269 380.25C368.482 380.25 368.663 380.322 368.814 380.467C368.968 380.612 369.045 380.786 369.045 380.989C369.045 381.192 368.968 381.366 368.814 381.51C368.663 381.655 368.482 381.727 368.269 381.727ZM373.478 390.148C372.887 390.148 372.365 389.998 371.913 389.7C371.461 389.398 371.107 388.974 370.851 388.426C370.596 387.875 370.468 387.224 370.468 386.473C370.468 385.728 370.596 385.082 370.851 384.534C371.107 383.986 371.462 383.563 371.918 383.265C372.373 382.966 372.899 382.817 373.496 382.817C373.958 382.817 374.323 382.894 374.591 383.048C374.861 383.198 375.068 383.371 375.209 383.565C375.354 383.755 375.466 383.912 375.546 384.036H375.638V380.545H376.728V390H375.675V388.911H375.546C375.466 389.04 375.352 389.203 375.205 389.4C375.057 389.594 374.846 389.768 374.572 389.922C374.298 390.072 373.933 390.148 373.478 390.148ZM373.626 389.169C374.063 389.169 374.432 389.055 374.734 388.827C375.035 388.597 375.265 388.278 375.421 387.872C375.578 387.462 375.657 386.99 375.657 386.455C375.657 385.925 375.58 385.462 375.426 385.065C375.272 384.665 375.044 384.354 374.743 384.132C374.441 383.908 374.069 383.795 373.626 383.795C373.164 383.795 372.779 383.914 372.472 384.151C372.167 384.385 371.938 384.703 371.784 385.107C371.633 385.507 371.557 385.956 371.557 386.455C371.557 386.959 371.634 387.418 371.788 387.83C371.945 388.24 372.176 388.566 372.481 388.809C372.789 389.049 373.17 389.169 373.626 389.169ZM381.848 390.148C381.164 390.148 380.575 389.997 380.08 389.695C379.587 389.391 379.207 388.966 378.939 388.421C378.675 387.873 378.542 387.236 378.542 386.51C378.542 385.784 378.675 385.143 378.939 384.589C379.207 384.032 379.579 383.598 380.056 383.288C380.537 382.974 381.097 382.817 381.737 382.817C382.106 382.817 382.471 382.878 382.831 383.001C383.191 383.125 383.519 383.325 383.814 383.602C384.11 383.875 384.345 384.239 384.521 384.691C384.696 385.143 384.784 385.701 384.784 386.362V386.824H379.318V385.882H383.676C383.676 385.482 383.596 385.125 383.436 384.811C383.279 384.497 383.054 384.249 382.762 384.068C382.472 383.886 382.131 383.795 381.737 383.795C381.303 383.795 380.927 383.903 380.61 384.119C380.296 384.331 380.055 384.608 379.886 384.95C379.716 385.291 379.632 385.657 379.632 386.048V386.676C379.632 387.212 379.724 387.666 379.909 388.038C380.096 388.407 380.356 388.689 380.689 388.883C381.021 389.074 381.408 389.169 381.848 389.169C382.134 389.169 382.392 389.129 382.623 389.049C382.857 388.966 383.059 388.843 383.228 388.68C383.397 388.513 383.528 388.307 383.62 388.061L384.673 388.357C384.562 388.714 384.376 389.027 384.114 389.298C383.853 389.566 383.53 389.775 383.145 389.926C382.76 390.074 382.328 390.148 381.848 390.148ZM387.53 385.734V390H386.441V382.909H387.494V384.017H387.586C387.752 383.657 388.004 383.368 388.343 383.149C388.682 382.928 389.119 382.817 389.654 382.817C390.134 382.817 390.554 382.915 390.914 383.112C391.274 383.306 391.555 383.602 391.755 383.999C391.955 384.393 392.055 384.891 392.055 385.494V390H390.965V385.568C390.965 385.011 390.821 384.577 390.531 384.266C390.242 383.952 389.845 383.795 389.34 383.795C388.992 383.795 388.682 383.871 388.408 384.022C388.137 384.172 387.923 384.393 387.766 384.682C387.609 384.971 387.53 385.322 387.53 385.734ZM396.926 390.148C396.261 390.148 395.689 389.991 395.209 389.677C394.729 389.363 394.359 388.931 394.101 388.38C393.842 387.829 393.713 387.199 393.713 386.491C393.713 385.771 393.845 385.136 394.11 384.585C394.378 384.031 394.75 383.598 395.227 383.288C395.707 382.974 396.268 382.817 396.908 382.817C397.406 382.817 397.856 382.909 398.256 383.094C398.656 383.278 398.984 383.537 399.239 383.869C399.494 384.202 399.653 384.589 399.715 385.033H398.625C398.542 384.71 398.357 384.423 398.071 384.174C397.788 383.922 397.406 383.795 396.926 383.795C396.501 383.795 396.129 383.906 395.809 384.128C395.492 384.346 395.244 384.656 395.066 385.056C394.89 385.453 394.803 385.919 394.803 386.455C394.803 387.002 394.889 387.479 395.061 387.886C395.237 388.292 395.483 388.607 395.8 388.832C396.12 389.057 396.495 389.169 396.926 389.169C397.209 389.169 397.466 389.12 397.697 389.021C397.928 388.923 398.123 388.781 398.283 388.597C398.443 388.412 398.557 388.19 398.625 387.932H399.715C399.653 388.35 399.501 388.727 399.258 389.063C399.017 389.395 398.699 389.66 398.302 389.857C397.908 390.051 397.449 390.148 396.926 390.148ZM404.28 390.148C403.597 390.148 403.008 389.997 402.512 389.695C402.02 389.391 401.64 388.966 401.372 388.421C401.107 387.873 400.975 387.236 400.975 386.51C400.975 385.784 401.107 385.143 401.372 384.589C401.64 384.032 402.012 383.598 402.489 383.288C402.969 382.974 403.529 382.817 404.169 382.817C404.539 382.817 404.903 382.878 405.264 383.001C405.624 383.125 405.951 383.325 406.247 383.602C406.542 383.875 406.778 384.239 406.953 384.691C407.129 385.143 407.216 385.701 407.216 386.362V386.824H401.75V385.882H406.108C406.108 385.482 406.028 385.125 405.868 384.811C405.711 384.497 405.487 384.249 405.194 384.068C404.905 383.886 404.563 383.795 404.169 383.795C403.735 383.795 403.36 383.903 403.043 384.119C402.729 384.331 402.487 384.608 402.318 384.95C402.149 385.291 402.064 385.657 402.064 386.048V386.676C402.064 387.212 402.157 387.666 402.341 388.038C402.529 388.407 402.789 388.689 403.121 388.883C403.454 389.074 403.84 389.169 404.28 389.169C404.566 389.169 404.825 389.129 405.056 389.049C405.29 388.966 405.491 388.843 405.661 388.68C405.83 388.513 405.961 388.307 406.053 388.061L407.106 388.357C406.995 388.714 406.809 389.027 406.547 389.298C406.285 389.566 405.962 389.775 405.577 389.926C405.193 390.074 404.76 390.148 404.28 390.148ZM415.503 390.148C414.82 390.148 414.23 389.997 413.735 389.695C413.242 389.391 412.862 388.966 412.595 388.421C412.33 387.873 412.197 387.236 412.197 386.51C412.197 385.784 412.33 385.143 412.595 384.589C412.862 384.032 413.235 383.598 413.712 383.288C414.192 382.974 414.752 382.817 415.392 382.817C415.761 382.817 416.126 382.878 416.486 383.001C416.846 383.125 417.174 383.325 417.47 383.602C417.765 383.875 418 384.239 418.176 384.691C418.351 385.143 418.439 385.701 418.439 386.362V386.824H412.973V385.882H417.331C417.331 385.482 417.251 385.125 417.091 384.811C416.934 384.497 416.709 384.249 416.417 384.068C416.128 383.886 415.786 383.795 415.392 383.795C414.958 383.795 414.583 383.903 414.266 384.119C413.952 384.331 413.71 384.608 413.541 384.95C413.372 385.291 413.287 385.657 413.287 386.048V386.676C413.287 387.212 413.379 387.666 413.564 388.038C413.752 388.407 414.012 388.689 414.344 388.883C414.677 389.074 415.063 389.169 415.503 389.169C415.789 389.169 416.048 389.129 416.278 389.049C416.512 388.966 416.714 388.843 416.883 388.68C417.052 388.513 417.183 388.307 417.276 388.061L418.328 388.357C418.217 388.714 418.031 389.027 417.77 389.298C417.508 389.566 417.185 389.775 416.8 389.926C416.415 390.074 415.983 390.148 415.503 390.148ZM414.838 381.949L415.965 379.807H417.239L415.798 381.949H414.838ZM422.958 392.807C422.432 392.807 421.98 392.739 421.601 392.604C421.223 392.471 420.907 392.296 420.655 392.077C420.406 391.862 420.207 391.631 420.059 391.385L420.927 390.776C421.026 390.905 421.15 391.053 421.301 391.219C421.452 391.388 421.658 391.534 421.92 391.657C422.184 391.783 422.531 391.847 422.958 391.847C423.531 391.847 424.003 391.708 424.376 391.431C424.748 391.154 424.934 390.72 424.934 390.129V388.689H424.842C424.762 388.818 424.648 388.978 424.5 389.169C424.356 389.357 424.146 389.525 423.873 389.672C423.602 389.817 423.235 389.889 422.774 389.889C422.201 389.889 421.687 389.754 421.232 389.483C420.78 389.212 420.421 388.818 420.156 388.301C419.895 387.784 419.764 387.156 419.764 386.418C419.764 385.691 419.892 385.059 420.147 384.52C420.403 383.979 420.758 383.56 421.213 383.265C421.669 382.966 422.195 382.817 422.792 382.817C423.254 382.817 423.62 382.894 423.891 383.048C424.165 383.198 424.374 383.371 424.519 383.565C424.667 383.755 424.78 383.912 424.86 384.036H424.971V382.909H426.024V390.203C426.024 390.812 425.885 391.308 425.608 391.69C425.334 392.074 424.965 392.356 424.5 392.534C424.039 392.716 423.525 392.807 422.958 392.807ZM422.922 388.911C423.359 388.911 423.728 388.81 424.03 388.61C424.331 388.41 424.56 388.123 424.717 387.747C424.874 387.372 424.953 386.922 424.953 386.399C424.953 385.888 424.876 385.437 424.722 385.047C424.568 384.656 424.34 384.349 424.039 384.128C423.737 383.906 423.365 383.795 422.922 383.795C422.46 383.795 422.075 383.912 421.767 384.146C421.463 384.38 421.233 384.694 421.08 385.088C420.929 385.482 420.853 385.919 420.853 386.399C420.853 386.892 420.93 387.327 421.084 387.706C421.241 388.081 421.472 388.377 421.777 388.592C422.084 388.804 422.466 388.911 422.922 388.911ZM430.105 390.166C429.655 390.166 429.248 390.082 428.881 389.912C428.515 389.74 428.224 389.492 428.009 389.169C427.793 388.843 427.686 388.449 427.686 387.987C427.686 387.581 427.766 387.252 427.926 386.999C428.086 386.744 428.3 386.544 428.568 386.399C428.835 386.254 429.131 386.147 429.454 386.076C429.78 386.002 430.108 385.944 430.437 385.901C430.868 385.845 431.217 385.804 431.485 385.776C431.756 385.745 431.953 385.694 432.076 385.624C432.202 385.553 432.265 385.43 432.265 385.254V385.217C432.265 384.762 432.141 384.408 431.891 384.156C431.645 383.903 431.271 383.777 430.77 383.777C430.249 383.777 429.842 383.891 429.546 384.119C429.251 384.346 429.043 384.589 428.923 384.848L427.889 384.479C428.074 384.048 428.32 383.712 428.628 383.472C428.938 383.229 429.277 383.06 429.643 382.964C430.012 382.866 430.376 382.817 430.733 382.817C430.96 382.817 431.222 382.844 431.517 382.9C431.816 382.952 432.104 383.061 432.381 383.228C432.661 383.394 432.893 383.645 433.078 383.98C433.262 384.316 433.355 384.765 433.355 385.328V390H432.265V389.04H432.21C432.136 389.194 432.013 389.358 431.841 389.534C431.668 389.709 431.439 389.858 431.153 389.982C430.867 390.105 430.517 390.166 430.105 390.166ZM430.271 389.188C430.702 389.188 431.065 389.103 431.36 388.934C431.659 388.764 431.884 388.546 432.034 388.278C432.188 388.01 432.265 387.729 432.265 387.433V386.436C432.219 386.491 432.118 386.542 431.961 386.588C431.807 386.632 431.628 386.67 431.425 386.704C431.225 386.735 431.03 386.762 430.839 386.787C430.651 386.808 430.499 386.827 430.382 386.842C430.099 386.879 429.834 386.939 429.588 387.022C429.345 387.102 429.148 387.224 428.997 387.387C428.849 387.547 428.775 387.766 428.775 388.043C428.775 388.421 428.915 388.707 429.195 388.901C429.479 389.092 429.837 389.188 430.271 389.188ZM436.433 380.545V390H435.343V380.545H436.433ZM443.174 380.545V390H442.085V380.545H443.174ZM446.111 380.545V383.795H445.096V380.545H446.111ZM450.138 390.166C449.689 390.166 449.281 390.082 448.915 389.912C448.548 389.74 448.258 389.492 448.042 389.169C447.827 388.843 447.719 388.449 447.719 387.987C447.719 387.581 447.799 387.252 447.959 386.999C448.119 386.744 448.333 386.544 448.601 386.399C448.868 386.254 449.164 386.147 449.487 386.076C449.813 386.002 450.141 385.944 450.47 385.901C450.901 385.845 451.251 385.804 451.518 385.776C451.789 385.745 451.986 385.694 452.109 385.624C452.235 385.553 452.299 385.43 452.299 385.254V385.217C452.299 384.762 452.174 384.408 451.925 384.156C451.678 383.903 451.304 383.777 450.803 383.777C450.283 383.777 449.875 383.891 449.579 384.119C449.284 384.346 449.076 384.589 448.956 384.848L447.922 384.479C448.107 384.048 448.353 383.712 448.661 383.472C448.972 383.229 449.31 383.06 449.676 382.964C450.046 382.866 450.409 382.817 450.766 382.817C450.994 382.817 451.255 382.844 451.551 382.9C451.849 382.952 452.137 383.061 452.414 383.228C452.694 383.394 452.926 383.645 453.111 383.98C453.296 384.316 453.388 384.765 453.388 385.328V390H452.299V389.04H452.243C452.169 389.194 452.046 389.358 451.874 389.534C451.701 389.709 451.472 389.858 451.186 389.982C450.9 390.105 450.55 390.166 450.138 390.166ZM450.304 389.188C450.735 389.188 451.098 389.103 451.394 388.934C451.692 388.764 451.917 388.546 452.068 388.278C452.222 388.01 452.299 387.729 452.299 387.433V386.436C452.252 386.491 452.151 386.542 451.994 386.588C451.84 386.632 451.661 386.67 451.458 386.704C451.258 386.735 451.063 386.762 450.872 386.787C450.684 386.808 450.532 386.827 450.415 386.842C450.132 386.879 449.867 386.939 449.621 387.022C449.378 387.102 449.181 387.224 449.03 387.387C448.882 387.547 448.808 387.766 448.808 388.043C448.808 388.421 448.948 388.707 449.229 388.901C449.512 389.092 449.87 389.188 450.304 389.188ZM456.466 385.734V390H455.377V382.909H456.429V384.017H456.521C456.688 383.657 456.94 383.368 457.279 383.149C457.617 382.928 458.054 382.817 458.59 382.817C459.07 382.817 459.49 382.915 459.85 383.112C460.21 383.306 460.49 383.602 460.69 383.999C460.89 384.393 460.99 384.891 460.99 385.494V390H459.901V385.568C459.901 385.011 459.756 384.577 459.467 384.266C459.177 383.952 458.78 383.795 458.276 383.795C457.928 383.795 457.617 383.871 457.343 384.022C457.072 384.172 456.858 384.393 456.701 384.682C456.545 384.971 456.466 385.322 456.466 385.734ZM465.843 392.807C465.317 392.807 464.865 392.739 464.486 392.604C464.107 392.471 463.792 392.296 463.54 392.077C463.29 391.862 463.092 391.631 462.944 391.385L463.812 390.776C463.91 390.905 464.035 391.053 464.186 391.219C464.337 391.388 464.543 391.534 464.805 391.657C465.069 391.783 465.415 391.847 465.843 391.847C466.416 391.847 466.888 391.708 467.261 391.431C467.633 391.154 467.819 390.72 467.819 390.129V388.689H467.727C467.647 388.818 467.533 388.978 467.385 389.169C467.241 389.357 467.031 389.525 466.757 389.672C466.486 389.817 466.12 389.889 465.659 389.889C465.086 389.889 464.572 389.754 464.117 389.483C463.664 389.212 463.306 388.818 463.041 388.301C462.779 387.784 462.649 387.156 462.649 386.418C462.649 385.691 462.776 385.059 463.032 384.52C463.287 383.979 463.643 383.56 464.098 383.265C464.554 382.966 465.08 382.817 465.677 382.817C466.139 382.817 466.505 382.894 466.776 383.048C467.05 383.198 467.259 383.371 467.404 383.565C467.551 383.755 467.665 383.912 467.745 384.036H467.856V382.909H468.909V390.203C468.909 390.812 468.77 391.308 468.493 391.69C468.219 392.074 467.85 392.356 467.385 392.534C466.924 392.716 466.41 392.807 465.843 392.807ZM465.806 388.911C466.243 388.911 466.613 388.81 466.914 388.61C467.216 388.41 467.445 388.123 467.602 387.747C467.759 387.372 467.838 386.922 467.838 386.399C467.838 385.888 467.761 385.437 467.607 385.047C467.453 384.656 467.225 384.349 466.924 384.128C466.622 383.906 466.25 383.795 465.806 383.795C465.345 383.795 464.96 383.912 464.652 384.146C464.348 384.38 464.118 384.694 463.964 385.088C463.814 385.482 463.738 385.919 463.738 386.399C463.738 386.892 463.815 387.327 463.969 387.706C464.126 388.081 464.357 388.377 464.661 388.592C464.969 388.804 465.351 388.911 465.806 388.911ZM471.992 380.545V390H470.903V380.545H471.992ZM476.961 390.148C476.278 390.148 475.688 389.997 475.193 389.695C474.7 389.391 474.32 388.966 474.053 388.421C473.788 387.873 473.655 387.236 473.655 386.51C473.655 385.784 473.788 385.143 474.053 384.589C474.32 384.032 474.693 383.598 475.17 383.288C475.65 382.974 476.21 382.817 476.85 382.817C477.219 382.817 477.584 382.878 477.944 383.001C478.304 383.125 478.632 383.325 478.928 383.602C479.223 383.875 479.458 384.239 479.634 384.691C479.809 385.143 479.897 385.701 479.897 386.362V386.824H474.431V385.882H478.789C478.789 385.482 478.709 385.125 478.549 384.811C478.392 384.497 478.167 384.249 477.875 384.068C477.586 383.886 477.244 383.795 476.85 383.795C476.416 383.795 476.041 383.903 475.724 384.119C475.41 384.331 475.168 384.608 474.999 384.95C474.83 385.291 474.745 385.657 474.745 386.048V386.676C474.745 387.212 474.837 387.666 475.022 388.038C475.21 388.407 475.47 388.689 475.802 388.883C476.135 389.074 476.521 389.169 476.961 389.169C477.247 389.169 477.506 389.129 477.736 389.049C477.97 388.966 478.172 388.843 478.341 388.68C478.51 388.513 478.641 388.307 478.734 388.061L479.786 388.357C479.675 388.714 479.489 389.027 479.228 389.298C478.966 389.566 478.643 389.775 478.258 389.926C477.873 390.074 477.441 390.148 476.961 390.148ZM487.888 390.148C487.297 390.148 486.776 389.998 486.323 389.7C485.871 389.398 485.517 388.974 485.261 388.426C485.006 387.875 484.878 387.224 484.878 386.473C484.878 385.728 485.006 385.082 485.261 384.534C485.517 383.986 485.872 383.563 486.328 383.265C486.783 382.966 487.309 382.817 487.907 382.817C488.368 382.817 488.733 382.894 489.001 383.048C489.271 383.198 489.478 383.371 489.619 383.565C489.764 383.755 489.876 383.912 489.956 384.036H490.049V380.545H491.138V390H490.086V388.911H489.956C489.876 389.04 489.762 389.203 489.615 389.4C489.467 389.594 489.256 389.768 488.982 389.922C488.708 390.072 488.344 390.148 487.888 390.148ZM488.036 389.169C488.473 389.169 488.842 389.055 489.144 388.827C489.445 388.597 489.675 388.278 489.832 387.872C489.989 387.462 490.067 386.99 490.067 386.455C490.067 385.925 489.99 385.462 489.836 385.065C489.682 384.665 489.455 384.354 489.153 384.132C488.851 383.908 488.479 383.795 488.036 383.795C487.574 383.795 487.189 383.914 486.882 384.151C486.577 384.385 486.348 384.703 486.194 385.107C486.043 385.507 485.968 385.956 485.968 386.455C485.968 386.959 486.045 387.418 486.198 387.83C486.355 388.24 486.586 388.566 486.891 388.809C487.199 389.049 487.58 389.169 488.036 389.169ZM496.258 390.148C495.575 390.148 494.985 389.997 494.49 389.695C493.997 389.391 493.617 388.966 493.349 388.421C493.085 387.873 492.952 387.236 492.952 386.51C492.952 385.784 493.085 385.143 493.349 384.589C493.617 384.032 493.99 383.598 494.467 383.288C494.947 382.974 495.507 382.817 496.147 382.817C496.516 382.817 496.881 382.878 497.241 383.001C497.601 383.125 497.929 383.325 498.224 383.602C498.52 383.875 498.755 384.239 498.931 384.691C499.106 385.143 499.194 385.701 499.194 386.362V386.824H493.728V385.882H498.086C498.086 385.482 498.006 385.125 497.846 384.811C497.689 384.497 497.464 384.249 497.172 384.068C496.883 383.886 496.541 383.795 496.147 383.795C495.713 383.795 495.338 383.903 495.021 384.119C494.707 384.331 494.465 384.608 494.296 384.95C494.126 385.291 494.042 385.657 494.042 386.048V386.676C494.042 387.212 494.134 387.666 494.319 388.038C494.507 388.407 494.767 388.689 495.099 388.883C495.431 389.074 495.818 389.169 496.258 389.169C496.544 389.169 496.803 389.129 497.033 389.049C497.267 388.966 497.469 388.843 497.638 388.68C497.807 388.513 497.938 388.307 498.03 388.061L499.083 388.357C498.972 388.714 498.786 389.027 498.524 389.298C498.263 389.566 497.94 389.775 497.555 389.926C497.17 390.074 496.738 390.148 496.258 390.148ZM504.507 390V382.909H505.56V383.98H505.634C505.763 383.629 505.997 383.345 506.336 383.126C506.674 382.908 507.056 382.798 507.48 382.798C507.56 382.798 507.66 382.8 507.78 382.803C507.901 382.806 507.991 382.811 508.053 382.817V383.925C508.016 383.915 507.931 383.902 507.799 383.883C507.67 383.862 507.533 383.851 507.388 383.851C507.043 383.851 506.736 383.923 506.465 384.068C506.197 384.209 505.985 384.406 505.828 384.659C505.674 384.908 505.597 385.193 505.597 385.513V390H504.507ZM512.102 390.148C511.418 390.148 510.829 389.997 510.333 389.695C509.841 389.391 509.461 388.966 509.193 388.421C508.928 387.873 508.796 387.236 508.796 386.51C508.796 385.784 508.928 385.143 509.193 384.589C509.461 384.032 509.833 383.598 510.31 383.288C510.79 382.974 511.351 382.817 511.991 382.817C512.36 382.817 512.725 382.878 513.085 383.001C513.445 383.125 513.773 383.325 514.068 383.602C514.364 383.875 514.599 384.239 514.774 384.691C514.95 385.143 515.038 385.701 515.038 386.362V386.824H509.572V385.882H513.93C513.93 385.482 513.85 385.125 513.69 384.811C513.533 384.497 513.308 384.249 513.016 384.068C512.726 383.886 512.385 383.795 511.991 383.795C511.557 383.795 511.181 383.903 510.864 384.119C510.55 384.331 510.309 384.608 510.14 384.95C509.97 385.291 509.886 385.657 509.886 386.048V386.676C509.886 387.212 509.978 387.666 510.163 388.038C510.35 388.407 510.61 388.689 510.943 388.883C511.275 389.074 511.661 389.169 512.102 389.169C512.388 389.169 512.646 389.129 512.877 389.049C513.111 388.966 513.313 388.843 513.482 388.68C513.651 388.513 513.782 388.307 513.874 388.061L514.927 388.357C514.816 388.714 514.63 389.027 514.368 389.298C514.107 389.566 513.783 389.775 513.399 389.926C513.014 390.074 512.582 390.148 512.102 390.148ZM511.437 381.949L512.563 379.807H513.837L512.397 381.949H511.437ZM519.853 382.909V383.832H516.03V382.909H519.853ZM517.175 390V381.93C517.175 381.524 517.27 381.186 517.461 380.915C517.652 380.644 517.9 380.441 518.205 380.305C518.509 380.17 518.831 380.102 519.169 380.102C519.437 380.102 519.656 380.124 519.825 380.167C519.994 380.21 520.12 380.25 520.203 380.287L519.89 381.229C519.834 381.21 519.757 381.187 519.659 381.159C519.563 381.132 519.437 381.118 519.28 381.118C518.92 381.118 518.66 381.209 518.5 381.39C518.343 381.572 518.265 381.838 518.265 382.189V390H517.175ZM522.469 380.545V390H521.379V380.545H522.469ZM527.437 390.148C526.754 390.148 526.165 389.997 525.669 389.695C525.177 389.391 524.797 388.966 524.529 388.421C524.264 387.873 524.132 387.236 524.132 386.51C524.132 385.784 524.264 385.143 524.529 384.589C524.797 384.032 525.169 383.598 525.646 383.288C526.126 382.974 526.687 382.817 527.327 382.817C527.696 382.817 528.061 382.878 528.421 383.001C528.781 383.125 529.109 383.325 529.404 383.602C529.7 383.875 529.935 384.239 530.11 384.691C530.286 385.143 530.374 385.701 530.374 386.362V386.824H524.908V385.882H529.266C529.266 385.482 529.186 385.125 529.026 384.811C528.869 384.497 528.644 384.249 528.352 384.068C528.062 383.886 527.721 383.795 527.327 383.795C526.893 383.795 526.517 383.903 526.2 384.119C525.886 384.331 525.645 384.608 525.475 384.95C525.306 385.291 525.222 385.657 525.222 386.048V386.676C525.222 387.212 525.314 387.666 525.499 388.038C525.686 388.407 525.946 388.689 526.279 388.883C526.611 389.074 526.997 389.169 527.437 389.169C527.724 389.169 527.982 389.129 528.213 389.049C528.447 388.966 528.649 388.843 528.818 388.68C528.987 388.513 529.118 388.307 529.21 388.061L530.263 388.357C530.152 388.714 529.966 389.027 529.704 389.298C529.443 389.566 529.119 389.775 528.735 389.926C528.35 390.074 527.918 390.148 527.437 390.148ZM532.653 382.909L534.352 385.808L536.051 382.909H537.306L535.017 386.455L537.306 390H536.051L534.352 387.249L532.653 390H531.397L533.65 386.455L531.397 382.909H532.653ZM538.861 390V382.909H539.95V390H538.861ZM539.415 381.727C539.203 381.727 539.019 381.655 538.866 381.51C538.715 381.366 538.639 381.192 538.639 380.989C538.639 380.786 538.715 380.612 538.866 380.467C539.019 380.322 539.203 380.25 539.415 380.25C539.627 380.25 539.809 380.322 539.96 380.467C540.114 380.612 540.19 380.786 540.19 380.989C540.19 381.192 540.114 381.366 539.96 381.51C539.809 381.655 539.627 381.727 539.415 381.727ZM544.827 390.148C544.186 390.148 543.625 389.995 543.142 389.691C542.661 389.386 542.286 388.96 542.015 388.412C541.747 387.864 541.614 387.224 541.614 386.491C541.614 385.753 541.747 385.108 542.015 384.557C542.286 384.006 542.661 383.578 543.142 383.274C543.625 382.969 544.186 382.817 544.827 382.817C545.467 382.817 546.027 382.969 546.507 383.274C546.99 383.578 547.366 384.006 547.633 384.557C547.904 385.108 548.04 385.753 548.04 386.491C548.04 387.224 547.904 387.864 547.633 388.412C547.366 388.96 546.99 389.386 546.507 389.691C546.027 389.995 545.467 390.148 544.827 390.148ZM544.827 389.169C545.313 389.169 545.713 389.044 546.027 388.795C546.341 388.546 546.573 388.218 546.724 387.812C546.875 387.406 546.95 386.965 546.95 386.491C546.95 386.018 546.875 385.576 546.724 385.167C546.573 384.757 546.341 384.426 546.027 384.174C545.713 383.922 545.313 383.795 544.827 383.795C544.34 383.795 543.94 383.922 543.626 384.174C543.312 384.426 543.08 384.757 542.929 385.167C542.778 385.576 542.703 386.018 542.703 386.491C542.703 386.965 542.778 387.406 542.929 387.812C543.08 388.218 543.312 388.546 543.626 388.795C543.94 389.044 544.34 389.169 544.827 389.169ZM550.792 385.734V390H549.703V382.909H550.755V384.017H550.848C551.014 383.657 551.266 383.368 551.605 383.149C551.943 382.928 552.38 382.817 552.916 382.817C553.396 382.817 553.816 382.915 554.176 383.112C554.536 383.306 554.816 383.602 555.016 383.999C555.216 384.393 555.316 384.891 555.316 385.494V390H554.227V385.568C554.227 385.011 554.082 384.577 553.793 384.266C553.504 383.952 553.107 383.795 552.602 383.795C552.254 383.795 551.943 383.871 551.669 384.022C551.399 384.172 551.185 384.393 551.028 384.682C550.871 384.971 550.792 385.322 550.792 385.734ZM558.101 390.074C557.874 390.074 557.678 389.992 557.515 389.829C557.352 389.666 557.27 389.471 557.27 389.243C557.27 389.015 557.352 388.82 557.515 388.657C557.678 388.493 557.874 388.412 558.101 388.412C558.329 388.412 558.524 388.493 558.688 388.657C558.851 388.82 558.932 389.015 558.932 389.243C558.932 389.394 558.894 389.532 558.817 389.658C558.743 389.785 558.643 389.886 558.517 389.963C558.394 390.037 558.255 390.074 558.101 390.074Z" fill="#555555"/>
<circle cx="612" cy="94" r="5" fill="#0B0B0B"/>
<path d="M603.863 86C602.564 88.1039 601.919 90.5455 602.008 93.0162C602.097 95.4868 602.917 97.8755 604.364 99.8802C605.811 101.885 607.82 103.415 610.137 104.278C612.453 105.141 614.974 105.298 617.38 104.728" stroke="black"/>
<path d="M622.79 97.5281C623.342 95.5727 623.304 93.494 622.682 91.5548C622.061 89.6157 620.883 87.9031 619.299 86.6338C617.714 85.3644 615.793 84.5953 613.78 84.4236C611.766 84.252 609.75 84.6855 607.986 85.6693" stroke="black"/>
<path d="M340.354 38.3536C340.549 38.1583 340.549 37.8417 340.354 37.6464L337.172 34.4645C336.976 34.2692 336.66 34.2692 336.464 34.4645C336.269 34.6597 336.269 34.9763 336.464 35.1716L339.293 38L336.464 40.8284C336.269 41.0237 336.269 41.3403 336.464 41.5355C336.66 41.7308 336.976 41.7308 337.172 41.5355L340.354 38.3536ZM329 38V38.5H340V38V37.5H329V38Z" fill="#666666"/>
</svg>
